<?xml version="1.0" encoding="UTF-8" standalone="no"?>
<!-- Created with Inkscape (http://www.inkscape.org/) -->

<svg
   width="77.952599mm"
   height="74.222542mm"
   viewBox="0 0 77.952599 74.222542"
   version="1.1"
   id="svg1"
   xml:space="preserve"
   xmlns="http://www.w3.org/2000/svg"
   xmlns:svg="http://www.w3.org/2000/svg"><defs
     id="defs1" /><g
     id="layer1"
     transform="translate(-102.78908,-126.48249)"><path
       style="fill:#000000;stroke-width:5.21194"
       d="m 126.22626,199.6092 c -0.23922,-0.66942 -0.54829,-3.90614 -0.68672,-7.19274 l -0.25174,-5.97564 -9.1933,-0.4597 -9.19329,-0.45969 v -9.54708 c 0,-9.06096 -0.10533,-9.58611 -2.06849,-10.31286 -2.77595,-1.02759 -2.70544,-3.5829 0.0989,-3.5829 1.97779,0 2.21902,-0.49409 2.75799,-5.65084 1.01755,-9.73544 0.85078,-10.8437 -1.78242,-11.84481 -4.81262,-1.82976 -1.93245,-3.17991 7.36709,-3.45354 l 8.98197,-0.26425 -0.32314,-7.09037 c -0.29968,-6.58513 -0.1918,-7.09038 1.51579,-7.09038 1.63436,0 1.88975,0.7661 2.29831,6.89498 l 0.4597,6.89498 11.44245,0.25956 11.4425,0.25955 7.55295,-7.51369 c 5.20746,-5.18041 8.00617,-7.33977 9.01254,-6.95356 2.27366,0.87248 1.8419,1.67611 -4.01288,7.4698 -3.0099,2.97847 -5.26083,5.758 -5.00206,6.17668 0.25851,0.41851 2.41115,0.76188 4.78305,0.76266 8.51178,0.003 14.88484,5.74053 14.88484,13.40089 0,3.37723 0.29291,3.97885 2.05908,4.23085 2.94756,0.4206 3.22859,3.30296 0.39141,4.01501 -2.15451,0.54074 -2.28434,0.96072 -2.58924,8.37747 -0.31532,7.6751 -0.37943,7.86154 -3.73779,10.9394 -2.18537,2.00274 -4.75314,3.34486 -7.12478,3.72414 -2.03943,0.32626 -3.70803,0.88243 -3.70803,1.23627 0,0.35389 1.04593,3.21738 2.32431,6.36352 1.27839,3.14608 2.08134,6.11329 1.78442,6.59378 -1.37768,2.2291 -3.128,0.30542 -5.68743,-6.2512 l -2.78125,-7.12478 -13.99042,-0.25434 -13.99042,-0.25434 0.29813,7.13926 c 0.25851,6.19033 0.0855,7.18023 -1.2996,7.44698 -0.87868,0.16939 -1.79338,-0.24027 -2.0326,-0.90943 z m -1.86384,-23.44029 c -0.003,-3.12143 -0.27571,-5.945 -0.60547,-6.27465 -0.32939,-0.32992 -3.15356,-1.12573 -6.27539,-1.76904 -5.62891,-1.16002 -5.68305,-1.15132 -6.51935,1.04833 -0.99264,2.61082 -1.13177,11.61606 -0.19399,12.55385 0.35713,0.35702 3.56329,0.52953 7.1248,0.38308 l 6.47548,-0.26633 z m 30.08037,4.09497 c -0.62064,-3.72096 -10.61731,-26.4592 -11.6326,-26.4592 -0.61339,0 -4.25779,3.22922 -8.09868,7.17606 l -6.98337,7.17612 0.46282,5.92436 c 0.25486,3.25835 0.62788,6.45316 0.82948,7.09955 0.27936,0.89604 3.37369,1.11442 13.02615,0.91928 11.37836,-0.22984 12.63292,-0.41591 12.39604,-1.83617 z m 13.679,0.61694 c 1.51349,-0.78267 3.14775,-2.46441 3.63162,-3.73717 1.0819,-2.84551 1.16586,-12.94109 0.1131,-13.59175 -0.89098,-0.55064 -17.71377,1.0722 -18.41832,1.7768 -0.53881,0.53876 0.99689,5.09587 4.09388,12.14867 1.90183,4.33092 2.41245,4.82647 4.97365,4.82647 1.56983,0 4.09257,-0.64034 5.60607,-1.42302 z M 123.53013,164.4975 c 0.26581,-0.69209 0.14906,-5.3462 -0.25852,-10.34242 l -0.74155,-9.08405 h -5.05631 -5.05631 l -0.66705,8.67945 c -0.36686,4.77372 -0.50175,8.84477 -0.29968,9.04683 0.32069,0.32054 8.92585,2.58065 10.87839,2.85698 0.39506,0.0558 0.93564,-0.46438 1.20125,-1.15679 z m 13.73784,-10.78074 c 8.49479,-8.72922 8.28907,-9.3397 -3.00453,-8.91445 l -7.13697,0.26893 -0.30594,3.21765 c -0.48575,5.10681 0.75167,12.87062 2.05152,12.87062 0.63435,0 4.41259,-3.34914 8.39608,-7.44254 z m 31.91783,5.91268 c 3.28811,-0.51858 3.44744,-0.70637 3.44744,-4.06036 0,-7.99251 -4.00194,-10.95769 -14.78893,-10.95769 -5.61045,0 -7.04192,0.32419 -8.82451,1.99889 -2.6363,2.47671 -2.65251,3.84776 -0.11727,9.94766 l 2.0102,4.8371 7.41295,-0.61089 c 4.07709,-0.33617 8.96423,-0.85559 10.86038,-1.15471 z"
       id="path1" /></g></svg>
